<mxfile host="65bd71144e">
    <diagram name="第 1 页" id="UpfD0Sz0CBNI1ClnR2mp">
        <mxGraphModel dx="1712" dy="692" grid="1" gridSize="10" guides="1" tooltips="1" connect="1" arrows="1" fold="1" page="1" pageScale="1" pageWidth="827" pageHeight="1169" math="0" shadow="0">
            <root>
                <mxCell id="0"/>
                <mxCell id="1" parent="0"/>
                <mxCell id="FCqXL8VjYoRTm37Blg7O-38" style="edgeStyle=orthogonalEdgeStyle;rounded=0;orthogonalLoop=1;jettySize=auto;html=1;exitX=1;exitY=0.75;exitDx=0;exitDy=0;entryX=0;entryY=0.75;entryDx=0;entryDy=0;" parent="1" source="FCqXL8VjYoRTm37Blg7O-1" target="FCqXL8VjYoRTm37Blg7O-4" edge="1">
                    <mxGeometry relative="1" as="geometry"/>
                </mxCell>
                <mxCell id="FCqXL8VjYoRTm37Blg7O-44" value="5" style="edgeLabel;html=1;align=center;verticalAlign=middle;resizable=0;points=[];" parent="FCqXL8VjYoRTm37Blg7O-38" vertex="1" connectable="0">
                    <mxGeometry x="0.0119" y="-2" relative="1" as="geometry">
                        <mxPoint as="offset"/>
                    </mxGeometry>
                </mxCell>
                <mxCell id="FCqXL8VjYoRTm37Blg7O-1" value="机械臂" style="rounded=0;whiteSpace=wrap;html=1;" parent="1" vertex="1">
                    <mxGeometry x="160" y="250" width="120" height="60" as="geometry"/>
                </mxCell>
                <mxCell id="FCqXL8VjYoRTm37Blg7O-19" style="edgeStyle=orthogonalEdgeStyle;rounded=0;orthogonalLoop=1;jettySize=auto;html=1;exitX=0.5;exitY=0;exitDx=0;exitDy=0;entryX=0.5;entryY=0;entryDx=0;entryDy=0;" parent="1" source="FCqXL8VjYoRTm37Blg7O-2" target="FCqXL8VjYoRTm37Blg7O-4" edge="1">
                    <mxGeometry relative="1" as="geometry"/>
                </mxCell>
                <mxCell id="FCqXL8VjYoRTm37Blg7O-26" value="后入先出" style="edgeLabel;html=1;align=center;verticalAlign=middle;resizable=0;points=[];" parent="FCqXL8VjYoRTm37Blg7O-19" vertex="1" connectable="0">
                    <mxGeometry x="0.0231" y="-1" relative="1" as="geometry">
                        <mxPoint as="offset"/>
                    </mxGeometry>
                </mxCell>
                <mxCell id="FCqXL8VjYoRTm37Blg7O-42" value="4" style="edgeLabel;html=1;align=center;verticalAlign=middle;resizable=0;points=[];" parent="FCqXL8VjYoRTm37Blg7O-19" vertex="1" connectable="0">
                    <mxGeometry x="-0.3141" y="-2" relative="1" as="geometry">
                        <mxPoint as="offset"/>
                    </mxGeometry>
                </mxCell>
                <mxCell id="FCqXL8VjYoRTm37Blg7O-2" value="任务&lt;br&gt;队列" style="rounded=0;whiteSpace=wrap;html=1;" parent="1" vertex="1">
                    <mxGeometry x="640" y="250" width="120" height="60" as="geometry"/>
                </mxCell>
                <mxCell id="FCqXL8VjYoRTm37Blg7O-27" style="edgeStyle=orthogonalEdgeStyle;rounded=0;orthogonalLoop=1;jettySize=auto;html=1;exitX=1;exitY=0.5;exitDx=0;exitDy=0;entryX=0;entryY=0.5;entryDx=0;entryDy=0;" parent="1" source="FCqXL8VjYoRTm37Blg7O-3" target="FCqXL8VjYoRTm37Blg7O-24" edge="1">
                    <mxGeometry relative="1" as="geometry"/>
                </mxCell>
                <mxCell id="FCqXL8VjYoRTm37Blg7O-46" value="7" style="edgeLabel;html=1;align=center;verticalAlign=middle;resizable=0;points=[];" parent="FCqXL8VjYoRTm37Blg7O-27" vertex="1" connectable="0">
                    <mxGeometry x="-0.0694" y="-1" relative="1" as="geometry">
                        <mxPoint as="offset"/>
                    </mxGeometry>
                </mxCell>
                <mxCell id="FCqXL8VjYoRTm37Blg7O-3" value="执行结果&lt;br&gt;队列" style="rounded=0;whiteSpace=wrap;html=1;" parent="1" vertex="1">
                    <mxGeometry x="640" y="400" width="120" height="60" as="geometry"/>
                </mxCell>
                <mxCell id="FCqXL8VjYoRTm37Blg7O-20" style="edgeStyle=orthogonalEdgeStyle;rounded=0;orthogonalLoop=1;jettySize=auto;html=1;exitX=0.5;exitY=1;exitDx=0;exitDy=0;entryX=0.5;entryY=1;entryDx=0;entryDy=0;" parent="1" source="FCqXL8VjYoRTm37Blg7O-4" target="FCqXL8VjYoRTm37Blg7O-2" edge="1">
                    <mxGeometry relative="1" as="geometry"/>
                </mxCell>
                <mxCell id="FCqXL8VjYoRTm37Blg7O-25" value="轮询" style="edgeLabel;html=1;align=center;verticalAlign=middle;resizable=0;points=[];" parent="FCqXL8VjYoRTm37Blg7O-20" vertex="1" connectable="0">
                    <mxGeometry x="0.1615" y="4" relative="1" as="geometry">
                        <mxPoint x="-21" as="offset"/>
                    </mxGeometry>
                </mxCell>
                <mxCell id="FCqXL8VjYoRTm37Blg7O-41" value="3" style="edgeLabel;html=1;align=center;verticalAlign=middle;resizable=0;points=[];" parent="FCqXL8VjYoRTm37Blg7O-20" vertex="1" connectable="0">
                    <mxGeometry x="0.2372" relative="1" as="geometry">
                        <mxPoint as="offset"/>
                    </mxGeometry>
                </mxCell>
                <mxCell id="FCqXL8VjYoRTm37Blg7O-23" style="edgeStyle=orthogonalEdgeStyle;rounded=0;orthogonalLoop=1;jettySize=auto;html=1;exitX=0.25;exitY=1;exitDx=0;exitDy=0;entryX=0;entryY=0.5;entryDx=0;entryDy=0;" parent="1" source="FCqXL8VjYoRTm37Blg7O-4" target="FCqXL8VjYoRTm37Blg7O-3" edge="1">
                    <mxGeometry relative="1" as="geometry"/>
                </mxCell>
                <mxCell id="FCqXL8VjYoRTm37Blg7O-45" value="6" style="edgeLabel;html=1;align=center;verticalAlign=middle;resizable=0;points=[];" parent="FCqXL8VjYoRTm37Blg7O-23" vertex="1" connectable="0">
                    <mxGeometry x="0.328" y="-1" relative="1" as="geometry">
                        <mxPoint as="offset"/>
                    </mxGeometry>
                </mxCell>
                <mxCell id="FCqXL8VjYoRTm37Blg7O-37" style="edgeStyle=orthogonalEdgeStyle;rounded=0;orthogonalLoop=1;jettySize=auto;html=1;exitX=0;exitY=0.25;exitDx=0;exitDy=0;entryX=1;entryY=0.25;entryDx=0;entryDy=0;" parent="1" source="FCqXL8VjYoRTm37Blg7O-4" target="FCqXL8VjYoRTm37Blg7O-1" edge="1">
                    <mxGeometry relative="1" as="geometry"/>
                </mxCell>
                <mxCell id="FCqXL8VjYoRTm37Blg7O-43" value="4" style="edgeLabel;html=1;align=center;verticalAlign=middle;resizable=0;points=[];" parent="FCqXL8VjYoRTm37Blg7O-37" vertex="1" connectable="0">
                    <mxGeometry y="-2" relative="1" as="geometry">
                        <mxPoint as="offset"/>
                    </mxGeometry>
                </mxCell>
                <mxCell id="FCqXL8VjYoRTm37Blg7O-4" value="命令发送&lt;br&gt;接收&lt;br&gt;后台线程" style="rounded=0;whiteSpace=wrap;html=1;" parent="1" vertex="1">
                    <mxGeometry x="420" y="250" width="120" height="60" as="geometry"/>
                </mxCell>
                <mxCell id="FCqXL8VjYoRTm37Blg7O-15" style="edgeStyle=orthogonalEdgeStyle;rounded=0;orthogonalLoop=1;jettySize=auto;html=1;exitX=0;exitY=0.5;exitDx=0;exitDy=0;entryX=1;entryY=0.5;entryDx=0;entryDy=0;" parent="1" source="FCqXL8VjYoRTm37Blg7O-5" target="FCqXL8VjYoRTm37Blg7O-6" edge="1">
                    <mxGeometry relative="1" as="geometry"/>
                </mxCell>
                <mxCell id="FCqXL8VjYoRTm37Blg7O-39" value="1" style="edgeLabel;html=1;align=center;verticalAlign=middle;resizable=0;points=[];" parent="FCqXL8VjYoRTm37Blg7O-15" vertex="1" connectable="0">
                    <mxGeometry x="-0.1458" y="3" relative="1" as="geometry">
                        <mxPoint as="offset"/>
                    </mxGeometry>
                </mxCell>
                <mxCell id="FCqXL8VjYoRTm37Blg7O-5" value="界面操作" style="rounded=0;whiteSpace=wrap;html=1;" parent="1" vertex="1">
                    <mxGeometry x="1100" y="250" width="120" height="60" as="geometry"/>
                </mxCell>
                <mxCell id="FCqXL8VjYoRTm37Blg7O-16" style="edgeStyle=orthogonalEdgeStyle;rounded=0;orthogonalLoop=1;jettySize=auto;html=1;exitX=0;exitY=0.5;exitDx=0;exitDy=0;entryX=1;entryY=0.5;entryDx=0;entryDy=0;" parent="1" source="FCqXL8VjYoRTm37Blg7O-6" target="FCqXL8VjYoRTm37Blg7O-2" edge="1">
                    <mxGeometry relative="1" as="geometry"/>
                </mxCell>
                <mxCell id="FCqXL8VjYoRTm37Blg7O-40" value="2" style="edgeLabel;html=1;align=center;verticalAlign=middle;resizable=0;points=[];" parent="FCqXL8VjYoRTm37Blg7O-16" vertex="1" connectable="0">
                    <mxGeometry x="-0.0278" y="1" relative="1" as="geometry">
                        <mxPoint as="offset"/>
                    </mxGeometry>
                </mxCell>
                <mxCell id="FCqXL8VjYoRTm37Blg7O-6" value="构造命令" style="rounded=0;whiteSpace=wrap;html=1;" parent="1" vertex="1">
                    <mxGeometry x="880" y="250" width="120" height="60" as="geometry"/>
                </mxCell>
                <mxCell id="FCqXL8VjYoRTm37Blg7O-31" value="" style="edgeStyle=orthogonalEdgeStyle;rounded=0;orthogonalLoop=1;jettySize=auto;html=1;" parent="1" source="FCqXL8VjYoRTm37Blg7O-24" target="FCqXL8VjYoRTm37Blg7O-30" edge="1">
                    <mxGeometry relative="1" as="geometry"/>
                </mxCell>
                <mxCell id="FCqXL8VjYoRTm37Blg7O-32" value="" style="edgeStyle=orthogonalEdgeStyle;rounded=0;orthogonalLoop=1;jettySize=auto;html=1;" parent="1" source="FCqXL8VjYoRTm37Blg7O-24" target="FCqXL8VjYoRTm37Blg7O-30" edge="1">
                    <mxGeometry relative="1" as="geometry"/>
                </mxCell>
                <mxCell id="FCqXL8VjYoRTm37Blg7O-33" value="" style="edgeStyle=orthogonalEdgeStyle;rounded=0;orthogonalLoop=1;jettySize=auto;html=1;" parent="1" source="FCqXL8VjYoRTm37Blg7O-24" target="FCqXL8VjYoRTm37Blg7O-30" edge="1">
                    <mxGeometry relative="1" as="geometry"/>
                </mxCell>
                <mxCell id="FCqXL8VjYoRTm37Blg7O-47" value="8" style="edgeLabel;html=1;align=center;verticalAlign=middle;resizable=0;points=[];" parent="FCqXL8VjYoRTm37Blg7O-33" vertex="1" connectable="0">
                    <mxGeometry x="-0.0091" y="-1" relative="1" as="geometry">
                        <mxPoint as="offset"/>
                    </mxGeometry>
                </mxCell>
                <mxCell id="FCqXL8VjYoRTm37Blg7O-24" value="解析执行结果&lt;br&gt;" style="rounded=0;whiteSpace=wrap;html=1;" parent="1" vertex="1">
                    <mxGeometry x="880" y="400" width="120" height="60" as="geometry"/>
                </mxCell>
                <mxCell id="FCqXL8VjYoRTm37Blg7O-30" value="界面信息更新&lt;br&gt;与展示" style="whiteSpace=wrap;html=1;rounded=0;" parent="1" vertex="1">
                    <mxGeometry x="1100" y="350" width="120" height="60" as="geometry"/>
                </mxCell>
                <mxCell id="FCqXL8VjYoRTm37Blg7O-49" style="edgeStyle=orthogonalEdgeStyle;rounded=0;orthogonalLoop=1;jettySize=auto;html=1;exitX=0.5;exitY=0;exitDx=0;exitDy=0;entryX=0.5;entryY=1;entryDx=0;entryDy=0;" parent="1" source="FCqXL8VjYoRTm37Blg7O-35" target="FCqXL8VjYoRTm37Blg7O-30" edge="1">
                    <mxGeometry relative="1" as="geometry"/>
                </mxCell>
                <mxCell id="FCqXL8VjYoRTm37Blg7O-50" value="10" style="edgeLabel;html=1;align=center;verticalAlign=middle;resizable=0;points=[];" parent="FCqXL8VjYoRTm37Blg7O-49" vertex="1" connectable="0">
                    <mxGeometry x="-0.02" y="1" relative="1" as="geometry">
                        <mxPoint as="offset"/>
                    </mxGeometry>
                </mxCell>
                <mxCell id="FCqXL8VjYoRTm37Blg7O-35" value="日志记录" style="rounded=0;whiteSpace=wrap;html=1;" parent="1" vertex="1">
                    <mxGeometry x="1100" y="460" width="120" height="60" as="geometry"/>
                </mxCell>
                <mxCell id="FCqXL8VjYoRTm37Blg7O-36" style="edgeStyle=orthogonalEdgeStyle;rounded=0;orthogonalLoop=1;jettySize=auto;html=1;exitX=1;exitY=0.75;exitDx=0;exitDy=0;entryX=0;entryY=0.5;entryDx=0;entryDy=0;" parent="1" source="FCqXL8VjYoRTm37Blg7O-24" target="FCqXL8VjYoRTm37Blg7O-35" edge="1">
                    <mxGeometry relative="1" as="geometry"/>
                </mxCell>
                <mxCell id="FCqXL8VjYoRTm37Blg7O-48" value="9" style="edgeLabel;html=1;align=center;verticalAlign=middle;resizable=0;points=[];" parent="FCqXL8VjYoRTm37Blg7O-36" vertex="1" connectable="0">
                    <mxGeometry x="-0.0933" relative="1" as="geometry">
                        <mxPoint as="offset"/>
                    </mxGeometry>
                </mxCell>
                <mxCell id="3" style="edgeStyle=none;html=1;exitX=0.5;exitY=1;exitDx=0;exitDy=0;entryX=0.5;entryY=0;entryDx=0;entryDy=0;" parent="1" source="2" target="FCqXL8VjYoRTm37Blg7O-5" edge="1">
                    <mxGeometry relative="1" as="geometry"/>
                </mxCell>
                <mxCell id="8" value="允许操作" style="edgeLabel;html=1;align=center;verticalAlign=middle;resizable=0;points=[];" vertex="1" connectable="0" parent="3">
                    <mxGeometry x="-0.1697" y="2" relative="1" as="geometry">
                        <mxPoint as="offset"/>
                    </mxGeometry>
                </mxCell>
                <mxCell id="6" style="edgeStyle=orthogonalEdgeStyle;html=1;exitX=0;exitY=0.5;exitDx=0;exitDy=0;entryX=0.25;entryY=0;entryDx=0;entryDy=0;" edge="1" parent="1" source="2" target="FCqXL8VjYoRTm37Blg7O-4">
                    <mxGeometry relative="1" as="geometry"/>
                </mxCell>
                <mxCell id="7" value="启动线程" style="edgeLabel;html=1;align=center;verticalAlign=middle;resizable=0;points=[];" vertex="1" connectable="0" parent="6">
                    <mxGeometry x="-0.4649" y="1" relative="1" as="geometry">
                        <mxPoint x="-114" y="-1" as="offset"/>
                    </mxGeometry>
                </mxCell>
                <mxCell id="2" value="机械臂连接成功" style="rounded=0;whiteSpace=wrap;html=1;" parent="1" vertex="1">
                    <mxGeometry x="1100" y="10" width="120" height="60" as="geometry"/>
                </mxCell>
            </root>
        </mxGraphModel>
    </diagram>
</mxfile>